<?xml version="1.0" encoding="utf-8"?>
<!-- Generator: Adobe Illustrator 16.0.3, SVG Export Plug-In . SVG Version: 6.00 Build 0)  -->
<!DOCTYPE svg PUBLIC "-//W3C//DTD SVG 1.1//EN" "http://www.w3.org/Graphics/SVG/1.1/DTD/svg11.dtd">
<svg version="1.1" id="Capa_1" xmlns="http://www.w3.org/2000/svg" xmlns:xlink="http://www.w3.org/1999/xlink" x="0px" y="0px"
	 width="100px" height="100px" viewBox="0 0 100 100" enable-background="new 0 0 100 100" xml:space="preserve">
<g transform="translate(0.000000,500.000000) scale(0.100000,-0.100000)" display="none">
	<path display="inline" fill="#B6ADB9" d="M55.889,4774.365c0-1.865,10.869-16.768,24.224-32.92
		c13.042-16.46,32.3-40.376,42.549-53.418c10.249-13.35,25.469-31.992,33.853-41.611l15.22-18.013l68.013,0.928
		c37.266,0.625,67.7,0.625,67.7,0.625c0-0.313-6.206-10.874-13.35-23.296c-7.456-12.734-44.102-76.714-81.367-142.549
		c-37.275-65.84-71.743-126.416-77.026-135.107c-10.249-17.07-10.249-17.07,10.566-41.924c53.418-63.359,71.123-85.41,71.123-87.588
		c0-7.441,6.826,0,18.633,20.195c7.451,12.119,31.06,52.49,52.793,89.131c21.738,36.66,73.603,124.229,114.912,194.106
		c41.611,70.19,93.481,157.769,115.84,195.356c22.07,37.266,40.361,70.186,40.693,72.983c0.303,4.658-22.061,4.966-251.88,5.898
		C125.146,4777.47,55.889,4776.855,55.889,4774.365z"/>
	<path display="inline" fill="#B6ADB9" d="M617.08,4741.137c-11.484-19.878-32.598-55.903-46.885-79.819
		c-13.975-23.916-54.355-91.616-89.448-150.625c-35.093-59.014-75.776-127.949-90.991-153.115l-27.334-45.967l9.629-11.484
		c5.278-6.211,25.464-31.367,44.722-55.596c19.253-24.219,35.713-44.092,36.65-44.092c0.928,0,60.249,97.51,131.987,217.383
		l130.127,217.407l35.098-0.615c19.248-0.313,35.088-1.553,35.088-3.11c0-1.548-3.408-8.076-7.451-14.595
		c-3.721-6.211-22.676-37.891-41.309-70.503c-18.936-32.3-42.227-72.988-52.158-90.068c-9.941-17.08-22.373-38.818-27.969-48.125
		c-45.654-78.896-57.451-99.697-57.451-100.635c0-0.313,3.408-4.961,7.764-9.932s25.771-29.502,47.207-54.971
		c21.738-25.156,40.381-44.727,41.621-43.486c1.23,1.553,12.734,20.811,25.469,42.861c12.422,22.354,67.695,118.945,122.666,214.922
		l100.01,174.844l-0.625,72.051l-0.928,72.363l-152.178,0.625l-152.187,0.928L617.08,4741.137z"/>
</g>
<g>
	<path fill="#B6ADB9" d="M36.461,1.949c7.912-0.027,15.823-0.058,23.737-0.076c5.196-0.01,10.393,0.02,15.593-0.021
		c0.93-0.007,1.46,0.236,1.931,1.108c1.423,2.636,2.958,5.211,4.498,7.781c0.524,0.881,0.595,1.537,0.017,2.527
		c-5.722,9.78-11.378,19.599-16.995,29.44c-0.525,0.921-1.107,1.129-2.068,1.126c-11.281-0.028-22.563,0.001-33.845-0.042
		c-1.195-0.005-1.853,0.327-2.468,1.405C21.073,55.338,15.211,65.437,9.285,75.694c-2.581-4.476-5.088-8.85-7.629-13.204
		c-0.348-0.599-0.28-1.008,0.06-1.597c6.06-10.473,12.098-20.958,18.107-31.46c0.479-0.835,1.115-0.841,1.903-0.841
		c11.518,0.013,23.036-0.018,34.553,0.044c1.301,0.007,1.978-0.402,2.596-1.5c1.86-3.309,3.84-6.551,5.89-10.021
		c-12.65,0-25.022,0-37.566,0c0.598-1.77,1.631-3.12,2.45-4.575c1.813-3.221,3.683-6.411,5.543-9.603
		C35.412,2.555,35.492,2,36.109,1.987C36.25,2.184,36.364,2.146,36.461,1.949z"/>
	<path fill="#B6ADB9" d="M89.61,23.594c2.617,4.522,5.093,8.835,7.612,13.125c0.386,0.659,0.105,1.109-0.192,1.622
		c-5.99,10.366-11.999,20.72-17.94,31.113c-0.535,0.938-1.194,0.939-2.027,0.939c-11.635-0.006-23.27,0.022-34.904-0.033
		c-1.291-0.004-1.954,0.423-2.563,1.535c-1.814,3.324-3.766,6.569-5.795,10.07c12.73,0,25.161,0,37.543,0
		c0.388,0.739-0.156,1.104-0.387,1.509c-2.445,4.282-4.946,8.531-7.37,12.822c-0.466,0.826-0.961,1.128-1.926,1.128
		c-12.816-0.038-25.631-0.042-38.446,0.002c-1.104,0.005-1.662-0.355-2.176-1.295c-1.491-2.726-3.082-5.396-4.663-8.071
		c-0.325-0.55-0.351-0.979-0.02-1.551c5.8-10.016,11.593-20.035,17.34-30.08c0.562-0.984,1.31-0.98,2.212-0.98
		c11.22,0.011,22.441-0.013,33.661,0.032c1.203,0.003,1.845-0.335,2.467-1.427C77.797,43.964,83.638,33.92,89.61,23.594z"/>
	<path fill="#B6ADB9" d="M36.461,1.949c-0.097,0.197-0.211,0.234-0.351,0.038C36.226,1.974,36.344,1.962,36.461,1.949z"/>
</g>
</svg>
